<svg width="512" height="512" viewBox="0 0 512 512" fill="none" xmlns="http://www.w3.org/2000/svg">
<path d="M73.29 510.559C60.1 506.409 51.56 496.869 49.09 483.529C47.56 475.229 47.55 36.8194 49.09 28.4294C51.15 17.1894 57.38 8.98941 68.21 3.28941L73.5 0.499414L253.45 0.239414C414.8 -0.000585526 433.96 0.139414 438.82 1.54941C451.85 5.33941 460.4 14.8894 462.91 28.4694C463.67 32.5694 464 82.3394 464 191.719C464 365.389 464.4 354.679 457.79 357.449C453.37 359.289 449.5 358.379 446.49 354.799L444 351.849V191.669C444 41.1794 443.89 31.2894 442.25 28.0194C441.29 26.1094 438.97 23.5194 437.1 22.2694L433.7 19.9994H256H78.3L74.9 22.2694C73.03 23.5194 70.71 26.1094 69.75 28.0194C68.1 31.2994 68 44.2594 68 255.999C68 467.739 68.1 480.699 69.75 483.979C70.71 485.889 73.03 488.479 74.9 489.729L78.3 491.999H202.66H327.02L326.76 455.749L326.5 419.499L276.16 418.999L225.83 418.499L223.41 415.689C219.96 411.679 220.16 406.679 223.92 402.919L226.85 399.999H276.72H326.59L327.82 395.389C330.18 386.579 337.12 379.189 345.9 376.169C348.33 375.329 364.41 374.999 402.23 374.999H455.15L458.08 377.919C461.63 381.479 461.87 385.339 458.89 391.289C457.5 394.069 438.23 414.109 402.14 450.299C353.41 499.159 346.8 505.439 341.02 508.299L334.54 511.499L206.02 511.689C101.72 511.849 76.71 511.629 73.29 510.559ZM429 394.719C429 394.289 411.46 394.059 390.03 394.219L351.05 394.499L348.78 396.779L346.5 399.049L346.23 438.779L345.95 478.499L387.48 436.999C410.31 414.179 429 395.149 429 394.719ZM120.18 444.319C118.35 443.419 115.65 441.099 114.18 439.169L111.5 435.659V409.499V383.339L114.19 379.809C119.1 373.379 120.96 372.999 147.56 372.999C171.07 372.999 171.37 373.029 175.57 375.489C178.39 377.139 180.51 379.409 181.9 382.299C183.84 386.309 184 388.329 184 409.499C184 430.669 183.84 432.689 181.9 436.699C180.51 439.589 178.39 441.859 175.57 443.509C171.36 445.979 171.1 445.999 147.41 445.979C127.32 445.959 122.97 445.689 120.18 444.319ZM164 409.999V392.999H147H130V409.329C130 418.319 130.3 425.969 130.67 426.329C131.03 426.699 138.68 426.999 147.67 426.999H164V409.999ZM120.22 341.879C117.43 340.499 115.09 338.299 113.47 335.539C111.02 331.369 111 331.079 111 306.809C111 283.029 111.07 282.199 113.25 278.989C118.67 271.019 122.41 270.049 147.5 270.049C173.09 270.049 176.88 271.099 181.73 279.589C183.87 283.319 183.97 284.539 183.98 306.679C183.99 320.639 183.58 330.989 182.94 332.679C181.36 336.869 176.07 341.889 172.04 342.999C170.09 343.549 158.6 343.989 146.5 343.989C126.1 343.999 124.19 343.839 120.22 341.879ZM164 306.999V289.999H147H130V306.999V323.999H147H164V306.999ZM223.94 314.089C220.77 310.929 219.99 305.759 222.08 301.849C224.68 296.979 224.38 296.999 311 296.999C397.62 296.999 397.32 296.979 399.92 301.849C401.8 305.359 401.2 310.649 398.59 313.689L396.17 316.499L311.53 316.769L226.88 317.029L223.94 314.089ZM124.12 240.999C119.87 239.989 116.14 237.249 113.25 233.009C111.07 229.799 111 228.969 111 205.189C111 180.879 111.02 180.639 113.49 176.429C115.14 173.609 117.41 171.489 120.3 170.099C124.3 168.159 126.33 167.999 146.57 168.009C158.63 168.009 170.09 168.449 172.04 168.999C176.07 170.109 181.36 175.129 182.94 179.319C183.58 181.009 183.99 191.359 183.98 205.319C183.97 227.459 183.87 228.679 181.73 232.409C178.86 237.419 175.31 240.019 169.86 241.069C164.39 242.129 128.67 242.069 124.12 240.999ZM164 204.999V187.999H147H130V204.999V221.999H147H164V204.999ZM226.33 213.539C220.16 210.859 218.94 202.909 223.92 197.919L226.85 194.999H311H395.15L398.08 197.919C403.2 203.049 401.44 211.609 394.78 213.929C392.68 214.659 365.95 214.989 310.6 214.959C243.92 214.929 228.94 214.679 226.33 213.539ZM120.18 137.319C118.35 136.419 115.65 134.099 114.18 132.169L111.5 128.659V102.499V76.3394L114.19 72.8094C119.11 66.3694 120.94 65.9994 147.65 66.0194C170.48 66.0294 171.67 66.1294 175.42 68.2694C177.87 69.6594 180.23 72.1594 181.67 74.9094C183.91 79.1494 184 80.1694 184 102.339C184 123.679 183.85 125.689 181.9 129.699C180.51 132.589 178.39 134.859 175.57 136.509C171.36 138.979 171.1 138.999 147.41 138.979C127.32 138.959 122.97 138.689 120.18 137.319ZM164 102.479V84.9494L147.25 85.2294L130.5 85.4994L130.22 101.459C130.07 110.239 130.17 117.999 130.44 118.709C130.82 119.689 134.89 119.999 147.47 119.999H164V102.479ZM224.08 109.409C219.9 105.899 219.73 99.9394 223.69 95.7994L226.37 92.9994H310.76H395.15L398.08 95.9194C402.11 99.9594 402.11 105.039 398.08 109.079L395.15 111.999H311.15H227.15L224.08 109.409Z" fill="currentColor"/>
</svg>
