<svg width="512" height="512" viewBox="0 0 512 512" fill="none" xmlns="http://www.w3.org/2000/svg">
<g clip-path="url(#clip0_149_23)">
<path d="M363.88 497.209C356.89 493.549 353.22 488.309 351.78 479.919L350.67 473.469L341.86 469.879C333.36 466.409 333 466.349 331.39 468.119C330.48 469.129 327.45 471.089 324.67 472.479C318.4 475.599 311.31 475.779 305.09 472.959C300.09 470.689 284.2 455.299 281.59 450.199C277.4 442.029 278.86 431.639 285.2 424.419L288.16 421.049L284.35 412.029L280.53 402.999H237.22C191.01 402.999 189.6 402.859 187.03 398.059C184.99 394.249 185.8 389.039 188.92 385.919L191.85 382.999H222.81H253.77L254.19 369.749C254.64 355.539 255.55 352.379 260.86 346.659C264.65 342.579 268.74 340.649 274.87 340.039L280.24 339.499L284.1 330.529L287.96 321.569L285.54 319.029C279.6 312.819 277.39 301.819 280.54 294.219C282.45 289.609 299.07 272.609 304.5 269.719C307.35 268.199 310.23 267.589 314.5 267.619C320.85 267.659 324.6 269.109 329.87 273.539L332.97 276.149L341.86 272.389L350.76 268.629L351.31 263.269C352.42 252.549 359.6 244.939 370.55 242.889C379.5 241.209 396.62 242.249 401.53 244.779C409 248.609 413.27 254.869 414.47 263.709C415.03 267.849 415.62 269.049 417.34 269.569C418.53 269.929 422.59 271.559 426.36 273.199L433.22 276.169L435.86 273.639C439.49 270.169 446.75 267.049 451.25 267.019L455 266.999V215.999V164.999L237.75 165.249L20.5 165.499V261.499V357.499L22.78 363.149C25.55 369.979 31.77 377.299 37.37 380.289C41.34 382.419 42.82 382.519 76.23 382.999L110.96 383.499L113.57 386.119C118.26 390.799 116.47 399.729 110.38 402.039C106.81 403.399 45.4 403.269 38.8 401.889C21.02 398.169 5.78001 381.599 1.48001 361.309C-0.699985 351.019 -0.679985 63.8992 1.50001 53.4992C5.00001 36.8392 15.5 23.0092 29.84 16.1592L37.5 12.4992L234.5 12.2292C367.5 12.0592 433.12 12.3092 436.5 12.9992C452.93 16.4092 466.36 29.5292 472.75 48.4192L475.49 56.4992L475.79 168.929L476.09 281.359L479.5 285.129C487.75 294.269 489.38 304.319 484.09 313.549C482.49 316.329 480.48 319.179 479.62 319.899C478.2 321.079 478.2 321.479 479.63 324.239C480.49 325.919 482.23 330.029 483.49 333.389L485.78 339.499L491.95 340.099C500 340.889 505.39 344.569 509.21 351.879C511.85 356.939 512 357.939 512 370.249C512 386.219 510.95 390.109 505.03 396.029C500.31 400.739 495.05 402.999 488.79 402.999C485.57 402.999 485.22 403.309 484.05 407.249C483.35 409.589 481.67 413.689 480.31 416.369L477.84 421.239L480.87 424.369C486.79 430.489 488.76 440.849 485.49 448.679C483.49 453.469 466.72 470.469 461.5 472.999C453.55 476.849 442.82 475.109 436.46 468.959L433.43 466.019L425.46 469.499C421.08 471.409 417 472.979 416.39 472.989C415.78 472.989 415.03 475.419 414.73 478.369C413.71 488.249 407.54 496.319 399.08 498.859C396.98 499.489 389.41 499.999 382.25 499.999C369.94 499.999 368.94 499.849 363.88 497.209ZM393.8 478.799C394.52 478.079 395 474.559 395 469.929C395 459.549 396.34 457.929 407.78 454.449C412.58 452.989 420.4 449.769 425.17 447.299C435.81 441.779 437.57 441.969 445.04 449.539C448.01 452.539 450.89 454.999 451.44 454.999C452.8 454.999 467 440.839 467 439.489C467 438.899 464.75 436.209 462.01 433.509C459.27 430.809 456.52 427.079 455.91 425.219C454.88 422.119 455.16 421.149 459.29 413.169C461.77 408.399 465.02 400.549 466.52 395.719C470.09 384.239 471.61 382.999 482.01 382.999C487.42 382.999 490.1 382.579 490.92 381.599C491.67 380.689 491.97 376.759 491.79 370.349L491.5 360.499L482.81 359.979C471.9 359.319 469.88 357.749 466.91 347.559C465.78 343.679 462.6 335.899 459.84 330.279C455.24 320.919 454.92 319.779 455.92 316.729C456.53 314.899 459.27 311.189 462.01 308.489C464.75 305.789 467 303.099 467 302.509C467 301.929 463.63 298.099 459.51 294.009L452.01 286.559L447.26 291.129C441.14 297.009 438.11 298.999 435.26 298.999C433.99 298.999 429.25 297.129 424.73 294.839C420.2 292.559 412.23 289.289 407 287.589C398.39 284.789 397.34 284.169 395.75 280.999C394.57 278.629 394 275.149 394 270.219V262.929L382.75 263.219L371.5 263.499L371 272.229C370.39 282.959 368.93 284.739 358.18 287.929C354.15 289.119 347.03 292.099 342.35 294.549C337.67 296.999 332.73 298.999 331.37 298.999C327.87 298.999 324.12 296.799 319.55 292.079C317.37 289.839 314.91 287.999 314.07 287.999C312.36 287.999 299 300.859 299 302.509C299 303.099 301.06 305.589 303.58 308.039C308.52 312.849 311 316.779 311 319.799C311 320.839 309.34 324.799 307.31 328.599C305.27 332.389 302.01 340.229 300.05 345.999C296.8 355.559 296.17 356.659 292.99 358.249C290.63 359.429 287.15 359.999 282.22 359.999H274.93L275.22 371.249L275.5 382.499L284.23 382.999C294.99 383.619 296.74 385.059 299.98 395.999C301.2 400.119 304.18 407.359 306.6 412.089C309.02 416.809 311 421.799 311 423.189C311 426.039 306.07 433.359 303.05 434.969C301.95 435.559 300.54 436.989 299.92 438.149C298.92 440.019 299.59 441.039 306.12 447.619C310.15 451.679 313.93 454.999 314.51 454.999C315.1 454.999 317.81 452.729 320.53 449.969C323.31 447.149 327.05 444.469 329.03 443.869C332.3 442.889 333.35 443.199 342.54 447.799C348.02 450.549 355.68 453.729 359.56 454.879C369.58 457.849 371.38 460.049 371.79 469.809C371.97 474.039 372.3 478.059 372.53 478.749C373.09 480.449 392.1 480.499 393.8 478.799ZM454.79 100.249L454.5 55.4992L451.58 49.5492C449.98 46.2792 446.71 41.6992 444.32 39.3792C436.05 31.3392 453.93 31.9492 235.96 32.2392L41.5 32.4992L37.37 34.7092C31.76 37.7092 25.54 45.0292 22.79 51.8492C20.57 57.3792 20.52 58.4492 20.2 101.249L19.88 144.999H237.48H455.08L454.79 100.249ZM145.15 400.469C137.55 394.079 141.86 382.999 151.93 382.999C156.61 382.999 161.2 387.609 161.2 392.309C161.2 401.449 151.92 406.169 145.15 400.469ZM135.78 323.089C133.1 320.699 132.55 319.509 132.67 316.339C132.91 309.749 152.78 228.779 154.83 226.019C160.34 218.639 172.26 222.909 172.17 232.229C172.14 235.229 154.32 311.299 151.91 318.729C149.52 326.079 141.54 328.239 135.78 323.089ZM90.18 316.249C89.06 315.289 81.58 307.099 73.55 298.049C57.6 280.069 55.79 276.879 57.84 270.249C59.04 266.389 87.16 233.729 91.4 231.289C97.91 227.519 106 232.299 106 239.919C106 244.239 106.67 243.349 85.75 266.939C82.59 270.509 80 273.749 80 274.149C80 274.539 85.85 281.469 93 289.539C105.16 303.259 106 304.469 106 308.299C106 314.129 102.18 317.999 96.42 317.999C93.87 317.999 91.42 317.319 90.18 316.249ZM201.7 315.419C195.84 309.559 197.35 305.819 212.43 288.879C219.34 281.119 225 274.479 224.99 274.129C224.98 273.779 219.55 267.419 212.91 259.999C200.11 245.689 197.86 242.169 198.71 237.739C199.47 233.749 204.36 229.999 208.79 229.999C211.96 229.999 213.25 230.849 218.97 236.749C222.57 240.459 230.32 248.989 236.2 255.689C247.63 268.729 249.17 271.909 247.1 278.189C246.15 281.089 218.51 313.349 214.1 316.719C213.22 317.389 210.65 317.949 208.39 317.969C205.27 317.989 203.65 317.369 201.7 315.419ZM372.25 431.889C356.81 429.319 340.13 418.109 331.48 404.499C325.4 394.939 322.74 386.529 322.21 375.249C321.61 362.269 323.04 354.789 328.18 344.079C335.64 328.539 351.34 315.839 368.46 311.509C376.01 309.599 389.66 309.589 397.75 311.499C418.02 316.279 435.77 333.269 442.17 353.999C445.1 363.519 445.3 378.429 442.6 387.499C433.46 418.269 403.6 437.109 372.25 431.889ZM389.5 412.009C411.83 408.359 427.45 386.899 423.89 364.769C418.98 334.329 383.37 319.839 358.59 338.199C347.18 346.649 341.44 359.059 342.2 373.599C342.57 380.609 343.2 383.009 346.3 389.299C352.05 400.929 361.97 408.819 374.17 411.469C382.1 413.189 382.24 413.189 389.5 412.009ZM85.41 121.919C79.08 120.409 70.95 114.999 66.88 109.599C57.55 97.2392 57.73 80.7492 67.33 67.7592C73.02 60.0692 87.36 54.2092 97.34 55.5092C108.64 56.9692 119.09 64.4192 124.04 74.5292C127.53 81.6492 127.97 93.3692 125.04 101.189C119.34 116.359 101.39 125.749 85.41 121.919ZM98.28 101.629C103.47 99.4192 106.23 95.6892 106.7 90.2792C107.42 81.8992 101.87 75.8292 93.5 75.8292C79.06 75.8292 74.99 94.6992 88.02 101.249C92.22 103.359 94.07 103.429 98.28 101.629ZM172.29 121.609C154.94 115.929 145.03 100.159 148.13 83.1992C151.07 67.1192 164.53 55.6292 180.5 55.5692C184.73 55.5492 189.58 56.2592 192.76 57.3592C199.76 59.7692 208.09 67.4392 211.71 74.8092C214.1 79.6792 214.5 81.7192 214.5 88.9992C214.5 99.2092 211.69 106.309 205 112.999C196.89 121.109 182.39 124.929 172.29 121.609ZM186.36 101.619C190.46 99.9092 193.75 95.8392 194.57 91.4592C197.07 78.1692 180.52 70.3392 171.25 80.4292C165.29 86.9292 167.35 96.9792 175.47 100.999C180.24 103.359 181.96 103.459 186.36 101.619ZM290.95 121.659C281.95 119.189 272.78 111.169 268.7 102.179C265.71 95.6092 265.76 82.4792 268.79 75.7392C271.95 68.7292 278.98 61.7392 286.27 58.3792L292.5 55.4992L341.8 55.2092C383.94 54.9492 392.01 55.1392 397.3 56.4792C418.76 61.8992 429.33 85.4692 418.99 104.859C415.29 111.809 409.96 116.749 402.42 120.229C397.53 122.489 397.19 122.499 346.5 122.699C308.28 122.859 294.36 122.599 290.95 121.659ZM394.98 101.249C399.22 99.1192 403 93.7292 403 89.8192C403 85.3092 400.54 80.5192 396.86 77.8992L393.5 75.4992H345C299.98 75.4992 296.26 75.6292 293.16 77.3192C288.78 79.7092 285.63 86.5392 286.58 91.5892C287.35 95.6792 292.69 101.619 296.21 102.289C297.47 102.529 319.42 102.789 345 102.859C387.44 102.989 391.8 102.839 394.98 101.249Z" fill="currentColor"/>
</g>
<defs>
<clipPath id="clip0_149_23">
<rect width="512" height="512" fill="white"/>
</clipPath>
</defs>
</svg>
