<svg width="512" height="512" viewBox="0 0 512 512" fill="none" xmlns="http://www.w3.org/2000/svg">
<g clip-path="url(#clip0_149_20)">
<path d="M380 511.539C379.17 511.339 375.12 510.639 371 509.969C330.06 503.369 293.6 472.569 279 432.259L276.74 426.029L149.62 425.759L22.5 425.499L17.85 423.349C11.91 420.599 5.4 414.089 2.65 408.149L0.5 403.499V232.999V62.4991L2.65 57.8491C3.83 55.2891 6.69 51.3091 9 48.9991C14.98 43.0191 20.75 40.7191 31.13 40.1991L39.77 39.7691L40.2 31.1291C40.72 20.7491 43.02 14.9791 49 8.99906C55.14 2.85906 60.9 0.539062 70 0.539062C79.1 0.539062 84.86 2.85906 91 8.99906C97.01 15.0091 99.28 20.7391 99.81 31.2491L100.24 39.9991H141.5H182.76L183.19 31.2491C183.72 20.7391 185.99 15.0091 192 8.99906C198.14 2.85906 203.9 0.539062 213 0.539062C222.1 0.539062 227.86 2.85906 234 8.99906C240.01 15.0091 242.28 20.7391 242.81 31.2491L243.24 39.9991H284.5H325.76L326.19 31.2491C326.72 20.7391 328.99 15.0091 335 8.99906C341.14 2.85906 346.9 0.539062 356 0.539062C365.1 0.539062 370.86 2.85906 377 8.99906C382.99 14.9891 385.28 20.7491 385.8 31.1691L386.24 39.8491L404.87 40.1691C421.41 40.4591 424.02 40.7391 428.15 42.6491C434.09 45.3991 440.6 51.9091 443.35 57.8491C445.5 62.4991 445.5 62.5491 446 173.709L446.5 284.919L453.5 289.109C482.22 306.299 501.98 334.129 509.64 368.159C512.05 378.839 512.07 403.819 509.68 414.999C502.83 447.049 484.68 474.189 458.56 491.449C438.18 504.919 419.19 510.879 394.5 511.549C387.35 511.739 380.83 511.739 380 511.539ZM408.39 490.489C462.73 481.009 499.82 429.119 490.49 375.609C486.33 351.719 473.06 329.019 454.75 314.429C444.6 306.339 427.56 297.789 416 294.979C359.71 281.299 303.5 318.299 293.51 375.609C281.9 442.179 341.82 502.099 408.39 490.489ZM272.52 391.749C272.56 366.299 278.47 346.739 292.55 325.439C309.81 299.319 336.95 281.169 369 274.319C381.04 271.749 405.18 271.929 417.25 274.679L426 276.679V209.839V142.999H222.99H19.98L20.24 271.399C20.5 398.199 20.52 399.819 22.5 402.009C23.6 403.239 25.4 404.599 26.5 405.049C27.6 405.499 83.4 405.899 150.5 405.939L272.5 405.999L272.52 391.749ZM425.79 94.5191L425.5 66.0391L422.73 63.2691L419.96 60.4991L403.11 60.1891L386.25 59.8691L385.81 68.6891C385.28 79.2591 383.02 84.9791 377 90.9991C370.86 97.1391 365.1 99.4591 356 99.4591C346.9 99.4591 341.14 97.1391 335 90.9991C328.99 84.9891 326.72 79.2591 326.19 68.7491L325.76 59.9991H284.5H243.24L242.81 68.7491C242.28 79.2591 240.01 84.9891 234 90.9991C227.86 97.1391 222.1 99.4591 213 99.4591C203.9 99.4591 198.14 97.1391 192 90.9991C185.99 84.9891 183.72 79.2591 183.19 68.7491L182.76 59.9991H141.5H100.24L99.81 68.7491C99.28 79.2591 97.01 84.9891 91 90.9991C84.86 97.1391 79.1 99.4591 70 99.4591C60.9 99.4591 55.14 97.1391 49 90.9991C42.97 84.9691 40.72 79.2591 40.19 68.6391L39.75 59.7891L32.86 60.1791C26.97 60.5091 25.58 60.9591 23.24 63.2991L20.5 66.0391L20.21 94.5191L19.91 122.999H223H426.09L425.79 94.5191ZM77 76.4491L79.5 73.9591L79.8 50.4291L80.1 26.8991L76.53 23.3291C73.35 20.1491 72.53 19.8091 69.28 20.3391C67.26 20.6691 64.46 22.0891 63.05 23.4891L60.5 26.0491V49.9191C60.5 72.3791 60.62 73.9191 62.5 76.0091C66.68 80.6591 72.61 80.8391 77 76.4491ZM220 76.4491L222.5 73.9491V49.8991V25.8391L219.11 22.8091C216.26 20.2591 215.16 19.8691 212.17 20.3591C210.21 20.6791 207.46 22.0891 206.05 23.4891L203.5 26.0491V49.9191C203.5 72.3791 203.62 73.9191 205.5 76.0091C209.68 80.6591 215.61 80.8391 220 76.4491ZM363 76.4491L365.5 73.9491V49.8991V25.8391L362.11 22.8091C359.26 20.2591 358.16 19.8691 355.17 20.3591C353.21 20.6791 350.46 22.0891 349.05 23.4891L346.5 26.0491V49.9191C346.5 72.3791 346.62 73.9191 348.5 76.0091C352.68 80.6591 358.61 80.8391 363 76.4491ZM388.39 401.019C387.23 400.549 385.31 398.939 384.14 397.449C382.05 394.799 382 393.919 382 361.879V329.029L384.75 325.979C386.48 324.059 388.84 322.719 391.11 322.359C394.16 321.869 395.25 322.259 398.11 324.809L401.5 327.829L401.8 354.919L402.09 381.999H428.53H454.97L458.21 384.899C460.9 387.299 461.45 388.519 461.45 391.999C461.45 395.479 460.9 396.699 458.21 399.099L454.97 401.999L422.73 401.939C405.01 401.899 389.55 401.489 388.39 401.019ZM66.5 385.049C60.13 382.449 58.44 374.099 63.29 369.249L66.04 366.499L110.97 366.219L155.9 365.939L159.18 368.869C161.9 371.299 162.45 372.509 162.45 375.999C162.45 379.479 161.9 380.699 159.21 383.099L155.97 385.999L112.23 385.939C88.18 385.899 67.6 385.499 66.5 385.049ZM189.39 385.019C186.24 383.749 183 379.109 183 375.879C183 371.879 187.6 367.069 192.11 366.359C195.16 365.869 196.25 366.259 199.09 368.789C201.9 371.299 202.45 372.489 202.45 375.999C202.45 379.479 201.9 380.699 199.21 383.099C195.93 386.039 193.22 386.569 189.39 385.019ZM66.5 325.049C60.13 322.449 58.44 314.099 63.29 309.249L66.04 306.499L100.96 306.209L135.89 305.929L139.17 308.859C141.9 311.299 142.45 312.509 142.45 315.999C142.45 319.479 141.9 320.699 139.21 323.099L135.97 325.999L102.23 325.939C83.68 325.899 67.6 325.499 66.5 325.049ZM189.39 325.019C186.24 323.749 183 319.109 183 315.879C183 314.149 184.14 311.749 185.92 309.769L188.83 306.499L223.86 306.209L258.89 305.929L262.17 308.859C264.9 311.299 265.45 312.509 265.45 315.999C265.45 319.479 264.9 320.699 262.21 323.099L258.97 325.999L225.23 325.939C206.68 325.899 190.55 325.489 189.39 325.019ZM66.5 265.049C60.13 262.449 58.44 254.099 63.29 249.249L66.04 246.499L100.96 246.209L135.89 245.929L139.17 248.859C141.9 251.299 142.45 252.509 142.45 255.999C142.45 259.479 141.9 260.699 139.21 263.099L135.97 265.999L102.23 265.939C83.68 265.899 67.6 265.499 66.5 265.049ZM189.39 265.019C186.24 263.749 183 259.109 183 255.879C183 254.149 184.14 251.749 185.92 249.769L188.83 246.499L223.86 246.209L258.89 245.929L262.17 248.859C264.9 251.299 265.45 252.509 265.45 255.999C265.45 259.479 264.9 260.699 262.21 263.099L258.97 265.999L225.23 265.939C206.68 265.899 190.55 265.489 189.39 265.019ZM66.5 205.049C60.13 202.449 58.44 194.099 63.29 189.249L66.04 186.499L100.96 186.209L135.89 185.929L139.17 188.859C141.9 191.299 142.45 192.509 142.45 195.999C142.45 199.479 141.9 200.699 139.21 203.099L135.97 205.999L102.23 205.939C83.68 205.899 67.6 205.499 66.5 205.049ZM189.39 205.019C186.24 203.749 183 199.109 183 195.879C183 194.149 184.14 191.749 185.92 189.769L188.83 186.499L223.86 186.209L258.89 185.929L262.17 188.859C264.9 191.299 265.45 192.509 265.45 195.999C265.45 199.479 264.9 200.699 262.21 203.099L258.97 205.999L225.23 205.939C206.68 205.899 190.55 205.489 189.39 205.019ZM312.39 205.019C309.24 203.749 306 199.109 306 195.879C306 194.149 307.14 191.749 308.92 189.769L311.83 186.499L345.36 186.209L378.88 185.919L382.17 188.859C384.9 191.299 385.45 192.509 385.45 195.999C385.45 199.479 384.9 200.699 382.21 203.099L378.97 205.999L346.73 205.939C329.01 205.899 313.55 205.489 312.39 205.019Z" fill="currentColor"/>
</g>
<defs>
<clipPath id="clip0_149_20">
<rect width="512" height="512" fill="white"/>
</clipPath>
</defs>
</svg>
